<mxfile host="app.diagrams.net" modified="2023-11-17T12:01:03.055Z" agent="Mozilla/5.0 (Windows NT 10.0; Win64; x64) AppleWebKit/537.36 (KHTML, like Gecko) Chrome/119.0.0.0 Safari/537.36" etag="ZUpRR6wqQ7pDQkrzWKhI" version="22.1.2" type="github">
  <diagram name="Page-1" id="e7e014a7-5840-1c2e-5031-d8a46d1fe8dd">
    <mxGraphModel dx="1050" dy="574" grid="1" gridSize="10" guides="1" tooltips="1" connect="1" arrows="1" fold="1" page="1" pageScale="1" pageWidth="1169" pageHeight="826" background="none" math="0" shadow="0">
      <root>
        <mxCell id="0" />
        <mxCell id="1" parent="0" />
        <mxCell id="tlNP2MSkCuYJV4MmRJUQ-41" value="Original folder with files" style="whiteSpace=wrap;html=1;aspect=fixed;" vertex="1" parent="1">
          <mxGeometry x="40" y="240" width="120" height="120" as="geometry" />
        </mxCell>
        <mxCell id="tlNP2MSkCuYJV4MmRJUQ-42" value="Destination folder" style="whiteSpace=wrap;html=1;aspect=fixed;" vertex="1" parent="1">
          <mxGeometry x="880" y="240" width="120" height="120" as="geometry" />
        </mxCell>
        <mxCell id="tlNP2MSkCuYJV4MmRJUQ-58" value="" style="edgeStyle=orthogonalEdgeStyle;rounded=0;orthogonalLoop=1;jettySize=auto;html=1;" edge="1" parent="1" source="tlNP2MSkCuYJV4MmRJUQ-43" target="tlNP2MSkCuYJV4MmRJUQ-42">
          <mxGeometry relative="1" as="geometry" />
        </mxCell>
        <mxCell id="tlNP2MSkCuYJV4MmRJUQ-43" value="Queue (processing file)" style="rounded=1;whiteSpace=wrap;html=1;" vertex="1" parent="1">
          <mxGeometry x="480" y="270" width="290" height="60" as="geometry" />
        </mxCell>
        <mxCell id="tlNP2MSkCuYJV4MmRJUQ-57" value="" style="edgeStyle=orthogonalEdgeStyle;rounded=0;orthogonalLoop=1;jettySize=auto;html=1;" edge="1" parent="1" source="tlNP2MSkCuYJV4MmRJUQ-44" target="tlNP2MSkCuYJV4MmRJUQ-43">
          <mxGeometry relative="1" as="geometry" />
        </mxCell>
        <mxCell id="tlNP2MSkCuYJV4MmRJUQ-44" value="Data Capture Service (actually, implements watcher)" style="ellipse;whiteSpace=wrap;html=1;aspect=fixed;" vertex="1" parent="1">
          <mxGeometry x="340" y="240" width="110" height="110" as="geometry" />
        </mxCell>
        <mxCell id="tlNP2MSkCuYJV4MmRJUQ-52" value="" style="edgeStyle=orthogonalEdgeStyle;rounded=0;orthogonalLoop=1;jettySize=auto;html=1;" edge="1" parent="1" source="tlNP2MSkCuYJV4MmRJUQ-45" target="tlNP2MSkCuYJV4MmRJUQ-46">
          <mxGeometry relative="1" as="geometry" />
        </mxCell>
        <mxCell id="tlNP2MSkCuYJV4MmRJUQ-45" value="File watcher" style="rounded=1;whiteSpace=wrap;html=1;direction=south;" vertex="1" parent="1">
          <mxGeometry x="220" y="240" width="60" height="120" as="geometry" />
        </mxCell>
        <mxCell id="tlNP2MSkCuYJV4MmRJUQ-49" style="edgeStyle=orthogonalEdgeStyle;rounded=0;orthogonalLoop=1;jettySize=auto;html=1;" edge="1" parent="1" source="tlNP2MSkCuYJV4MmRJUQ-46">
          <mxGeometry relative="1" as="geometry">
            <mxPoint x="90" y="370" as="targetPoint" />
          </mxGeometry>
        </mxCell>
        <mxCell id="tlNP2MSkCuYJV4MmRJUQ-51" style="edgeStyle=orthogonalEdgeStyle;rounded=0;orthogonalLoop=1;jettySize=auto;html=1;exitX=1;exitY=0.5;exitDx=0;exitDy=0;entryX=0.5;entryY=1;entryDx=0;entryDy=0;" edge="1" parent="1" source="tlNP2MSkCuYJV4MmRJUQ-46" target="tlNP2MSkCuYJV4MmRJUQ-44">
          <mxGeometry relative="1" as="geometry" />
        </mxCell>
        <mxCell id="tlNP2MSkCuYJV4MmRJUQ-46" value="Is new file of required format created?" style="rounded=1;whiteSpace=wrap;html=1;" vertex="1" parent="1">
          <mxGeometry x="195" y="413" width="110" height="60" as="geometry" />
        </mxCell>
        <mxCell id="tlNP2MSkCuYJV4MmRJUQ-53" value="No" style="ellipse;shape=cloud;whiteSpace=wrap;html=1;" vertex="1" parent="1">
          <mxGeometry x="90" y="450" width="90" height="50" as="geometry" />
        </mxCell>
        <mxCell id="tlNP2MSkCuYJV4MmRJUQ-54" value="Yes" style="ellipse;shape=cloud;whiteSpace=wrap;html=1;" vertex="1" parent="1">
          <mxGeometry x="310" y="450" width="100" height="50" as="geometry" />
        </mxCell>
        <mxCell id="tlNP2MSkCuYJV4MmRJUQ-55" value="continue" style="ellipse;shape=cloud;whiteSpace=wrap;html=1;" vertex="1" parent="1">
          <mxGeometry y="380" width="80" height="47" as="geometry" />
        </mxCell>
        <mxCell id="tlNP2MSkCuYJV4MmRJUQ-56" value="File is managed by Exchange" style="ellipse;shape=cloud;whiteSpace=wrap;html=1;" vertex="1" parent="1">
          <mxGeometry x="400" y="360" width="140" height="80" as="geometry" />
        </mxCell>
        <mxCell id="tlNP2MSkCuYJV4MmRJUQ-59" value="File is stored in destination folder" style="ellipse;shape=cloud;whiteSpace=wrap;html=1;" vertex="1" parent="1">
          <mxGeometry x="750" y="347" width="110" height="73" as="geometry" />
        </mxCell>
      </root>
    </mxGraphModel>
  </diagram>
</mxfile>
